<svg viewBox="0 0 24 24" xml:space="preserve" xmlns="http://www.w3.org/2000/svg"><path d="M3.5 20.5h4v-17h-4a3 3 0 0 0-3 3v11a3 3 0 0 0 3 3zM16.5 20.5h4a3 3 0 0 0 3-3v-11a3 3 0 0 0-3-3h-4v17zM7.5 4.5s1 0 1.5-1h6s.5 1 1.5 1M7.5 20.5h9" fill="none" stroke="#2196f3" stroke-linecap="round" stroke-linejoin="round" stroke-miterlimit="10" class="stroke-303c42"></path><circle cx="4" cy="10" fill="none" r="1.5" stroke="#2196f3" stroke-linecap="round" stroke-linejoin="round" stroke-miterlimit="10" class="stroke-303c42"></circle><circle cx="4" cy="13.5" fill="#2196f3" r=".5" class="fill-303c42"></circle><circle cx="4" cy="15.5" fill="#2196f3" r=".5" class="fill-303c42"></circle><circle cx="5" cy="14.5" fill="#2196f3" r=".5" class="fill-303c42"></circle><circle cx="3" cy="14.5" fill="#2196f3" r=".5" class="fill-303c42"></circle><circle cx="20" cy="14" fill="none" r="1.5" stroke="#2196f3" stroke-linecap="round" stroke-linejoin="round" stroke-miterlimit="10" class="stroke-303c42"></circle><circle cx="20" cy="10.5" fill="#2196f3" r=".5" class="fill-303c42"></circle><circle cx="20" cy="8.5" fill="#2196f3" r=".5" class="fill-303c42"></circle><circle cx="19" cy="9.5" fill="#2196f3" r=".5" class="fill-303c42"></circle><circle cx="21" cy="9.5" fill="#2196f3" r=".5" class="fill-303c42"></circle><path fill="none" stroke="#2196f3" stroke-linecap="round" stroke-linejoin="round" stroke-miterlimit="10" d="M4.5 5.5h1M18.5 5.5h1M19 5v1" class="stroke-303c42"></path></svg>