<svg data-name="Layer 1" viewBox="0 0 64 64" xmlns="http://www.w3.org/2000/svg"><path d="M47.94 28.88c3.02-6 2.04-13.52-2.96-18.52S32.46 4.38 26.46 7.4l-5.53-5.52a3 3 0 0 0-4.24 0c-.92.93-1.1 2.31-.57 3.42-4.17 4.46-6.46 10.24-6.46 16.38s2.5 12.44 7.03 16.97c3.12 3.12 6.96 5.28 11.14 6.32v3.04c-1.65 0-3 1.35-3 3s1.35 3 3 3v3h-1c-2.76 0-5 2.24-5 5 0 .55.45 1 1 1h16c.55 0 1-.45 1-1 0-2.76-2.24-5-5-5h-1v-3c1.65 0 3-1.35 3-3s-1.35-3-3-3v-2.33c6.07-.04 11.79-2.33 16.2-6.46.39.19.82.3 1.25.3h.04c.84.02 1.56-.3 2.13-.87s.88-1.32.88-2.12-.31-1.56-.88-2.12l-5.52-5.52Zm-4.38 2.7c-5.46 5.46-14.34 5.46-19.8 0-3.65-3.65-4.85-8.84-3.61-13.51l11.39 11.39a5.01 5.01 0 0 0 3.54 1.47c1.34 0 2.59-.53 3.53-1.47a5.003 5.003 0 0 0 0-7.07l-4.95-4.95c-.38-.38-.58-.88-.58-1.41s.21-1.04.58-1.41c.78-.78 2.05-.78 2.83 0l.71.71c1.13 1.13 3.11 1.13 4.24 0l2.79-2.79c4.76 5.49 4.55 13.84-.67 19.06Zm.67 2.09 1.41 1.41c-7.06 6.32-17.93 6.11-24.71-.67-6.78-6.78-6.99-17.65-.67-24.71l1.41 1.41c-5.54 6.28-5.33 15.89.67 21.88 3.12 3.12 7.22 4.68 11.31 4.68 3.78 0 7.56-1.35 10.57-4.01ZM33.66 7.68c3.27 0 6.54 1.15 9.16 3.42l-2.79 2.79c-.38.37-1.04.37-1.41 0l-.71-.71a4.008 4.008 0 0 0-5.66 0c-.75.75-1.17 1.76-1.17 2.83s.42 2.07 1.17 2.83l4.95 4.95a3 3 0 0 1-2.12 5.12c-.81 0-1.57-.32-2.13-.88L20.89 15.97a13.96 13.96 0 0 1 2.87-4.2c2.73-2.73 6.31-4.09 9.9-4.09ZM18.11 3.29c.39-.39 1.02-.39 1.42 0l5.16 5.16c-.55.37-1.08.79-1.58 1.24L18.12 4.7a.996.996 0 0 1 0-1.41ZM34.84 59c1.3 0 2.42.84 2.83 2H24.01c.41-1.16 1.53-2 2.83-2h8Zm-5-2v-3h2v3h-2Zm4-7c.55 0 1 .45 1 1s-.45 1-1 1h-6c-.55 0-1-.45-1-1s.45-1 1-1h6Zm-4-2v-2.63c.66.11 1.33.18 2 .23V48h-2ZM18.12 37.23c-8.34-8.34-8.55-21.75-.67-30.37l1.41 1.41c-7.1 7.84-6.89 19.98.67 27.54 3.9 3.9 9.02 5.85 14.14 5.85 4.81 0 9.6-1.74 13.4-5.18l1.41 1.41c-8.62 7.88-22.03 7.67-30.37-.67Zm33.94 0c-.19.19-.43.29-.71.29h-.03c-.25 0-.5-.1-.68-.29l-4.99-4.99c.45-.51.87-1.04 1.24-1.59l5.16 5.16c.19.19.29.44.29.71s-.1.52-.29.71Z" fill="#2196f3" class="fill-000000"></path></svg>