<svg viewBox="0 0 100 100" xml:space="preserve" xmlns="http://www.w3.org/2000/svg" enable-background="new 0 0 100 100"><path d="M68.7 79.1c-.5 0-1-.2-1.4-.6-.8-.8-.8-2 0-2.8l8.4-8.4c.8-.8 2-.8 2.8 0 .8.8.8 2 0 2.8l-8.4 8.4c-.3.4-.8.6-1.4.6zm20.5-10.4c-.8.8-2 .8-2.8 0-4.5-4.5-15.6-4-21-3.3-.7 5.4-1.2 16.5 3.3 21 .8.8.8 2 0 2.8-.4.4-.9.6-1.4.6s-1-.2-1.4-.6c-5.7-5.7-5.2-17.4-4.6-22.9-1.6.2-3.8.3-6.2.3-5.7 0-12.7-.9-16.7-4.9-5.7-5.7-5.2-17.4-4.6-22.9-1.6.2-3.8.3-6.2.3-5.7 0-12.7-.9-16.7-4.9-.8-.8-.8-2 0-2.8.8-.8 2-.8 2.8 0 4.5 4.5 15.6 4 21 3.3.7-5.4 1.2-16.5-3.3-21-.8-.8-.8-2 0-2.8.8-.8 2-.8 2.8 0 5.7 5.7 5.2 17.4 4.6 22.9 5.5-.6 17.2-1.1 22.9 4.6s5.2 17.4 4.6 22.9c5.5-.6 17.2-1.1 22.9 4.6.8.7.8 2 0 2.8zm-40-31.1c-4.2-.4-8.5-.1-11.3.3-.4 2.8-.7 7.2-.3 11.3l11.6-11.6zm-3 23.8 15.2-15.2.1-.1c-.6-2-1.4-3.7-2.7-4.9-1.2-1.2-2.9-2.1-4.9-2.7l-.1.1-15.2 15.2-.1.1c.6 2 1.4 3.7 2.7 4.9s2.9 2.1 4.9 2.7c0 0 0-.1.1-.1zm15.9.7c.4-2.8.7-7.2.3-11.3L50.8 62.4c4.2.4 8.5.1 11.3-.3zM25 33.4l8.4-8.4c.8-.8.8-2 0-2.8-.8-.8-2-.8-2.8 0l-8.4 8.4c-.8.8-.8 2 0 2.8.4.4.9.6 1.4.6s1-.2 1.4-.6z" fill="#2196f3" class="fill-000000"></path></svg>